<?xml version="1.0" encoding="UTF-8"?>
<!DOCTYPE svg PUBLIC "-//W3C//DTD SVG 1.1//EN" "http://www.w3.org/Graphics/SVG/1.1/DTD/svg11.dtd">
<svg version="1.1" xmlns="http://www.w3.org/2000/svg" xmlns:xlink="http://www.w3.org/1999/xlink" width="512" height="512"  xml:space="preserve">
    <defs>
        <filter id="shadow-outer" filterUnits="userSpaceOnUse">
            <feGaussianBlur stdDeviation="2.5" />
            <feOffset dx="0.1" dy="-0.1" result="blur" />
            <feFlood flood-color="rgb(255, 176, 0)" flood-opacity="0.6" />
            <feComposite in2="blur" operator="in" result="colorShadow" />
            <feComposite in="SourceGraphic" in2="colorShadow" operator="over" />
        </filter>
    </defs>
    <rect id="roundedRectangle" stroke="rgb(29, 104, 255)" fill="rgb(29, 104, 255)" x="0.5" y="-0.5" width="512" height="512" rx="100" />
    <path id="bezier2" stroke="rgb(255, 176, 0)" stroke-width="7" stroke-miterlimit="10" fill="none" filter="url(#shadow-outer)" d="M 145.5,186.5 L 213.8,-73.5 296.17,-73.5 367.5,186.5 145.5,186.5 Z M 145.5,186.5" />
    <circle id="oval2" stroke="rgb(255, 176, 0)" stroke-width="7" fill="none" cx="257" cy="255" r="129.5" />
    <path id="bezier" stroke="none" fill="rgb(255, 176, 0)" d="M 146.5,260.5 L 214.8,0.5 297.17,0.5 368.5,260.5 146.5,260.5 Z M 146.5,260.5" />
    <path stroke="rgb(255, 176, 0)" stroke-miterlimit="10" fill="none" filter="url(#shadow-outer)" d="M 146.5,260.5 L 214.8,0.5 297.17,0.5 368.5,260.5 146.5,260.5 Z M 146.5,260.5" />
    <circle id="oval" stroke="rgb(226, 226, 0)" fill="rgb(226, 226, 0)" cx="257.5" cy="255.5" r="111" />
    <path id="bezier3" stroke="rgb(29, 104, 255)" stroke-miterlimit="10" fill="rgb(29, 104, 255)" d="M 175.5,143.5 L 163.5,192.5 148.5,192.5 163.5,133.5 175.5,143.5 Z M 175.5,143.5" />
    <path id="bezier4" stroke="rgb(29, 104, 255)" stroke-miterlimit="10" fill="rgb(29, 104, 255)" d="M 365.5,192.5 L 355.5,157.5 338.5,147.5 351.5,192.5 365.5,192.5 Z M 365.5,192.5" />
</svg>
